<svg xmlns="http://www.w3.org/2000/svg" width="375" height="667" viewBox="0 0 375 667">
  <g id="Group_21" data-name="Group 21" transform="translate(0)">
    <g id="Group_20" data-name="Group 20" transform="translate(351.697 505.532)">
      <path id="Path_25" data-name="Path 25" d="M238.746,46.547a.4.4,0,0,1-.4-.4V44.539a.4.4,0,1,1,.8,0v1.607A.4.4,0,0,1,238.746,46.547Zm0,0" transform="translate(-227.496 -42.128)" fill="#c0ebd0"/>
      <path id="Path_26" data-name="Path 26" d="M90.458,99.688a.4.4,0,0,1-.284-.118l-1.421-1.421a.4.4,0,0,1,.568-.568L90.742,99a.4.4,0,0,1-.284.686Zm0,0" transform="translate(-84.606 -93.032)" fill="#c0ebd0"/>
      <path id="Path_27" data-name="Path 27" d="M37.318,247.975H35.71a.4.4,0,0,1,0-.8h1.607a.4.4,0,0,1,0,.8Zm0,0" transform="translate(-33.702 -235.922)" fill="#c0ebd0"/>
      <path id="Path_28" data-name="Path 28" d="M88.936,368.1a.4.4,0,0,1-.284-.686l1.421-1.421a.4.4,0,0,1,.568.568l-1.421,1.421A.4.4,0,0,1,88.936,368.1Zm0,0" transform="translate(-84.504 -349.227)" fill="#c0ebd0"/>
      <path id="Path_29" data-name="Path 29" d="M238.746,417.309a.4.4,0,0,1-.4-.4V415.3a.4.4,0,0,1,.8,0v1.607A.4.4,0,0,1,238.746,417.309Zm0,0" transform="translate(-227.496 -396.015)" fill="#c0ebd0"/>
      <path id="Path_30" data-name="Path 30" d="M358.868,368.1a.4.4,0,0,1-.284-.118l-1.421-1.421a.4.4,0,0,1,.568-.568l1.421,1.421a.4.4,0,0,1-.284.686Zm0,0" transform="translate(-340.8 -349.227)" fill="#c0ebd0"/>
      <path id="Path_31" data-name="Path 31" d="M408.481,247.975h-2.009a.4.4,0,1,1,0-.8h2.009a.4.4,0,1,1,0,.8Zm0,0" transform="translate(-387.589 -235.922)" fill="#c0ebd0"/>
      <path id="Path_32" data-name="Path 32" d="M357.347,99.48a.4.4,0,0,1-.284-.686l1.421-1.421a.4.4,0,1,1,.568.568l-1.421,1.421A.4.4,0,0,1,357.347,99.48Zm0,0" transform="translate(-340.699 -92.825)" fill="#c0ebd0"/>
      <path id="Path_33" data-name="Path 33" d="M94.717,95.911a7.634,7.634,0,1,1-7.634-7.634A7.634,7.634,0,0,1,94.717,95.911Zm0,0" transform="translate(-75.833 -84.26)" fill="#c0ebd0"/>
      <path id="Path_40" data-name="Path 40" d="M223.1,1.205A1.205,1.205,0,1,1,221.9,0,1.205,1.205,0,0,1,223.1,1.205Zm0,0" transform="translate(-210.647)" fill="#c0ebd0"/>
      <path id="Path_41" data-name="Path 41" d="M40.3,47.521a1.607,1.607,0,1,1-1.607-1.607A1.607,1.607,0,0,1,40.3,47.521Zm0,0" transform="translate(-35.398 -43.824)" fill="#c0ebd0"/>
      <path id="Path_42" data-name="Path 42" d="M2.009,234.934a1,1,0,1,1-1-1A1,1,0,0,1,2.009,234.934Zm0,0" transform="translate(0 -223.283)" fill="#c0ebd0"/>
      <path id="Path_43" data-name="Path 43" d="M40.3,397.076a1.607,1.607,0,1,1-1.607-1.607A1.607,1.607,0,0,1,40.3,397.076Zm0,0" transform="translate(-35.398 -377.47)" fill="#c0ebd0"/>
      <path id="Path_44" data-name="Path 44" d="M223.1,460.24a1.205,1.205,0,1,1-1.205-1.205A1.205,1.205,0,0,1,223.1,460.24Zm0,0" transform="translate(-210.647 -438.143)" fill="#c0ebd0"/>
      <path id="Path_45" data-name="Path 45" d="M389.855,397.076a1.607,1.607,0,1,1-1.607-1.607A1.607,1.607,0,0,1,389.855,397.076Zm0,0" transform="translate(-369.043 -377.47)" fill="#c0ebd0"/>
      <path id="Path_46" data-name="Path 46" d="M461.446,230.721a1.205,1.205,0,1,1-1.205-1.205A1.205,1.205,0,0,1,461.446,230.721Zm0,0" transform="translate(-438.143 -219.07)" fill="#c0ebd0"/>
      <path id="Path_47" data-name="Path 47" d="M389.855,47.521a1.607,1.607,0,1,1-1.607-1.607A1.607,1.607,0,0,1,389.855,47.521Zm0,0" transform="translate(-369.043 -43.824)" fill="#c0ebd0"/>
    </g>
    <g id="Group_19" data-name="Group 19" transform="translate(282.502 259.698)">
      <path id="Path_25-2" data-name="Path 25" d="M238.746,46.547a.4.4,0,0,1-.4-.4V44.539a.4.4,0,1,1,.8,0v1.607A.4.4,0,0,1,238.746,46.547Zm0,0" transform="translate(-227.496 -42.128)" fill="#c0ebd0"/>
      <path id="Path_26-2" data-name="Path 26" d="M90.458,99.688a.4.4,0,0,1-.284-.118l-1.421-1.421a.4.4,0,0,1,.568-.568L90.742,99a.4.4,0,0,1-.284.686Zm0,0" transform="translate(-84.606 -93.032)" fill="#c0ebd0"/>
      <path id="Path_27-2" data-name="Path 27" d="M37.318,247.975H35.71a.4.4,0,0,1,0-.8h1.607a.4.4,0,0,1,0,.8Zm0,0" transform="translate(-33.702 -235.922)" fill="#c0ebd0"/>
      <path id="Path_28-2" data-name="Path 28" d="M88.936,368.1a.4.4,0,0,1-.284-.686l1.421-1.421a.4.4,0,0,1,.568.568l-1.421,1.421A.4.4,0,0,1,88.936,368.1Zm0,0" transform="translate(-84.504 -349.227)" fill="#c0ebd0"/>
      <path id="Path_29-2" data-name="Path 29" d="M238.746,417.309a.4.4,0,0,1-.4-.4V415.3a.4.4,0,0,1,.8,0v1.607A.4.4,0,0,1,238.746,417.309Zm0,0" transform="translate(-227.496 -396.015)" fill="#c0ebd0"/>
      <path id="Path_30-2" data-name="Path 30" d="M358.868,368.1a.4.4,0,0,1-.284-.118l-1.421-1.421a.4.4,0,0,1,.568-.568l1.421,1.421a.4.4,0,0,1-.284.686Zm0,0" transform="translate(-340.8 -349.227)" fill="#c0ebd0"/>
      <path id="Path_31-2" data-name="Path 31" d="M408.481,247.975h-2.009a.4.4,0,1,1,0-.8h2.009a.4.4,0,1,1,0,.8Zm0,0" transform="translate(-387.589 -235.922)" fill="#c0ebd0"/>
      <path id="Path_32-2" data-name="Path 32" d="M357.347,99.48a.4.4,0,0,1-.284-.686l1.421-1.421a.4.4,0,1,1,.568.568l-1.421,1.421A.4.4,0,0,1,357.347,99.48Zm0,0" transform="translate(-340.699 -92.825)" fill="#c0ebd0"/>
      <path id="Path_33-2" data-name="Path 33" d="M94.717,95.911a7.634,7.634,0,1,1-7.634-7.634A7.634,7.634,0,0,1,94.717,95.911Zm0,0" transform="translate(-75.833 -84.26)" fill="#c0ebd0"/>
      <path id="Path_40-2" data-name="Path 40" d="M223.1,1.205A1.205,1.205,0,1,1,221.9,0,1.205,1.205,0,0,1,223.1,1.205Zm0,0" transform="translate(-210.647)" fill="#c0ebd0"/>
      <path id="Path_41-2" data-name="Path 41" d="M40.3,47.521a1.607,1.607,0,1,1-1.607-1.607A1.607,1.607,0,0,1,40.3,47.521Zm0,0" transform="translate(-35.398 -43.824)" fill="#c0ebd0"/>
      <path id="Path_42-2" data-name="Path 42" d="M2.009,234.934a1,1,0,1,1-1-1A1,1,0,0,1,2.009,234.934Zm0,0" transform="translate(0 -223.283)" fill="#c0ebd0"/>
      <path id="Path_43-2" data-name="Path 43" d="M40.3,397.076a1.607,1.607,0,1,1-1.607-1.607A1.607,1.607,0,0,1,40.3,397.076Zm0,0" transform="translate(-35.398 -377.47)" fill="#c0ebd0"/>
      <path id="Path_44-2" data-name="Path 44" d="M223.1,460.24a1.205,1.205,0,1,1-1.205-1.205A1.205,1.205,0,0,1,223.1,460.24Zm0,0" transform="translate(-210.647 -438.143)" fill="#c0ebd0"/>
      <path id="Path_45-2" data-name="Path 45" d="M389.855,397.076a1.607,1.607,0,1,1-1.607-1.607A1.607,1.607,0,0,1,389.855,397.076Zm0,0" transform="translate(-369.043 -377.47)" fill="#c0ebd0"/>
      <path id="Path_46-2" data-name="Path 46" d="M461.446,230.721a1.205,1.205,0,1,1-1.205-1.205A1.205,1.205,0,0,1,461.446,230.721Zm0,0" transform="translate(-438.143 -219.07)" fill="#c0ebd0"/>
      <path id="Path_47-2" data-name="Path 47" d="M389.855,47.521a1.607,1.607,0,1,1-1.607-1.607A1.607,1.607,0,0,1,389.855,47.521Zm0,0" transform="translate(-369.043 -43.824)" fill="#c0ebd0"/>
    </g>
    <g id="Group_17" data-name="Group 17" transform="translate(248.888 473.046)">
      <path id="Path_25-3" data-name="Path 25" d="M238.746,46.547a.4.4,0,0,1-.4-.4V44.539a.4.4,0,1,1,.8,0v1.607A.4.4,0,0,1,238.746,46.547Zm0,0" transform="translate(-227.496 -42.128)" fill="#c0ebd0"/>
      <path id="Path_26-3" data-name="Path 26" d="M90.458,99.688a.4.4,0,0,1-.284-.118l-1.421-1.421a.4.4,0,0,1,.568-.568L90.742,99a.4.4,0,0,1-.284.686Zm0,0" transform="translate(-84.606 -93.032)" fill="#c0ebd0"/>
      <path id="Path_27-3" data-name="Path 27" d="M37.318,247.975H35.71a.4.4,0,0,1,0-.8h1.607a.4.4,0,0,1,0,.8Zm0,0" transform="translate(-33.702 -235.922)" fill="#c0ebd0"/>
      <path id="Path_28-3" data-name="Path 28" d="M88.936,368.1a.4.4,0,0,1-.284-.686l1.421-1.421a.4.4,0,0,1,.568.568l-1.421,1.421A.4.4,0,0,1,88.936,368.1Zm0,0" transform="translate(-84.504 -349.227)" fill="#c0ebd0"/>
      <path id="Path_29-3" data-name="Path 29" d="M238.746,417.309a.4.4,0,0,1-.4-.4V415.3a.4.4,0,0,1,.8,0v1.607A.4.4,0,0,1,238.746,417.309Zm0,0" transform="translate(-227.496 -396.015)" fill="#c0ebd0"/>
      <path id="Path_30-3" data-name="Path 30" d="M358.868,368.1a.4.4,0,0,1-.284-.118l-1.421-1.421a.4.4,0,0,1,.568-.568l1.421,1.421a.4.4,0,0,1-.284.686Zm0,0" transform="translate(-340.8 -349.227)" fill="#c0ebd0"/>
      <path id="Path_31-3" data-name="Path 31" d="M408.481,247.975h-2.009a.4.4,0,1,1,0-.8h2.009a.4.4,0,1,1,0,.8Zm0,0" transform="translate(-387.589 -235.922)" fill="#c0ebd0"/>
      <path id="Path_32-3" data-name="Path 32" d="M357.347,99.48a.4.4,0,0,1-.284-.686l1.421-1.421a.4.4,0,1,1,.568.568l-1.421,1.421A.4.4,0,0,1,357.347,99.48Zm0,0" transform="translate(-340.699 -92.825)" fill="#c0ebd0"/>
      <path id="Path_33-3" data-name="Path 33" d="M94.717,95.911a7.634,7.634,0,1,1-7.634-7.634A7.634,7.634,0,0,1,94.717,95.911Zm0,0" transform="translate(-75.833 -84.26)" fill="#c0ebd0"/>
      <path id="Path_40-3" data-name="Path 40" d="M223.1,1.205A1.205,1.205,0,1,1,221.9,0,1.205,1.205,0,0,1,223.1,1.205Zm0,0" transform="translate(-210.647)" fill="#c0ebd0"/>
      <path id="Path_41-3" data-name="Path 41" d="M40.3,47.521a1.607,1.607,0,1,1-1.607-1.607A1.607,1.607,0,0,1,40.3,47.521Zm0,0" transform="translate(-35.398 -43.824)" fill="#c0ebd0"/>
      <path id="Path_42-3" data-name="Path 42" d="M2.009,234.934a1,1,0,1,1-1-1A1,1,0,0,1,2.009,234.934Zm0,0" transform="translate(0 -223.283)" fill="#c0ebd0"/>
      <path id="Path_43-3" data-name="Path 43" d="M40.3,397.076a1.607,1.607,0,1,1-1.607-1.607A1.607,1.607,0,0,1,40.3,397.076Zm0,0" transform="translate(-35.398 -377.47)" fill="#c0ebd0"/>
      <path id="Path_44-3" data-name="Path 44" d="M223.1,460.24a1.205,1.205,0,1,1-1.205-1.205A1.205,1.205,0,0,1,223.1,460.24Zm0,0" transform="translate(-210.647 -438.143)" fill="#c0ebd0"/>
      <path id="Path_45-3" data-name="Path 45" d="M389.855,397.076a1.607,1.607,0,1,1-1.607-1.607A1.607,1.607,0,0,1,389.855,397.076Zm0,0" transform="translate(-369.043 -377.47)" fill="#c0ebd0"/>
      <path id="Path_46-3" data-name="Path 46" d="M461.446,230.721a1.205,1.205,0,1,1-1.205-1.205A1.205,1.205,0,0,1,461.446,230.721Zm0,0" transform="translate(-438.143 -219.07)" fill="#c0ebd0"/>
      <path id="Path_47-3" data-name="Path 47" d="M389.855,47.521a1.607,1.607,0,1,1-1.607-1.607A1.607,1.607,0,0,1,389.855,47.521Zm0,0" transform="translate(-369.043 -43.824)" fill="#c0ebd0"/>
    </g>
    <g id="Group_16" data-name="Group 16" transform="translate(168.757 421.512)">
      <path id="Path_25-4" data-name="Path 25" d="M238.746,46.547a.4.4,0,0,1-.4-.4V44.539a.4.4,0,1,1,.8,0v1.607A.4.4,0,0,1,238.746,46.547Zm0,0" transform="translate(-227.496 -42.128)" fill="#c0ebd0"/>
      <path id="Path_26-4" data-name="Path 26" d="M90.458,99.688a.4.4,0,0,1-.284-.118l-1.421-1.421a.4.4,0,0,1,.568-.568L90.742,99a.4.4,0,0,1-.284.686Zm0,0" transform="translate(-84.606 -93.032)" fill="#c0ebd0"/>
      <path id="Path_27-4" data-name="Path 27" d="M37.318,247.975H35.71a.4.4,0,0,1,0-.8h1.607a.4.4,0,0,1,0,.8Zm0,0" transform="translate(-33.702 -235.922)" fill="#c0ebd0"/>
      <path id="Path_28-4" data-name="Path 28" d="M88.936,368.1a.4.4,0,0,1-.284-.686l1.421-1.421a.4.4,0,0,1,.568.568l-1.421,1.421A.4.4,0,0,1,88.936,368.1Zm0,0" transform="translate(-84.504 -349.227)" fill="#c0ebd0"/>
      <path id="Path_29-4" data-name="Path 29" d="M238.746,417.309a.4.4,0,0,1-.4-.4V415.3a.4.4,0,0,1,.8,0v1.607A.4.4,0,0,1,238.746,417.309Zm0,0" transform="translate(-227.496 -396.015)" fill="#c0ebd0"/>
      <path id="Path_30-4" data-name="Path 30" d="M358.868,368.1a.4.4,0,0,1-.284-.118l-1.421-1.421a.4.4,0,0,1,.568-.568l1.421,1.421a.4.4,0,0,1-.284.686Zm0,0" transform="translate(-340.8 -349.227)" fill="#c0ebd0"/>
      <path id="Path_31-4" data-name="Path 31" d="M408.481,247.975h-2.009a.4.4,0,1,1,0-.8h2.009a.4.4,0,1,1,0,.8Zm0,0" transform="translate(-387.589 -235.922)" fill="#c0ebd0"/>
      <path id="Path_32-4" data-name="Path 32" d="M357.347,99.48a.4.4,0,0,1-.284-.686l1.421-1.421a.4.4,0,1,1,.568.568l-1.421,1.421A.4.4,0,0,1,357.347,99.48Zm0,0" transform="translate(-340.699 -92.825)" fill="#c0ebd0"/>
      <path id="Path_33-4" data-name="Path 33" d="M94.717,95.911a7.634,7.634,0,1,1-7.634-7.634A7.634,7.634,0,0,1,94.717,95.911Zm0,0" transform="translate(-75.833 -84.26)" fill="#c0ebd0"/>
      <path id="Path_40-4" data-name="Path 40" d="M223.1,1.205A1.205,1.205,0,1,1,221.9,0,1.205,1.205,0,0,1,223.1,1.205Zm0,0" transform="translate(-210.647)" fill="#c0ebd0"/>
      <path id="Path_41-4" data-name="Path 41" d="M40.3,47.521a1.607,1.607,0,1,1-1.607-1.607A1.607,1.607,0,0,1,40.3,47.521Zm0,0" transform="translate(-35.398 -43.824)" fill="#c0ebd0"/>
      <path id="Path_42-4" data-name="Path 42" d="M2.009,234.934a1,1,0,1,1-1-1A1,1,0,0,1,2.009,234.934Zm0,0" transform="translate(0 -223.283)" fill="#c0ebd0"/>
      <path id="Path_43-4" data-name="Path 43" d="M40.3,397.076a1.607,1.607,0,1,1-1.607-1.607A1.607,1.607,0,0,1,40.3,397.076Zm0,0" transform="translate(-35.398 -377.47)" fill="#c0ebd0"/>
      <path id="Path_44-4" data-name="Path 44" d="M223.1,460.24a1.205,1.205,0,1,1-1.205-1.205A1.205,1.205,0,0,1,223.1,460.24Zm0,0" transform="translate(-210.647 -438.143)" fill="#c0ebd0"/>
      <path id="Path_45-4" data-name="Path 45" d="M389.855,397.076a1.607,1.607,0,1,1-1.607-1.607A1.607,1.607,0,0,1,389.855,397.076Zm0,0" transform="translate(-369.043 -377.47)" fill="#c0ebd0"/>
      <path id="Path_46-4" data-name="Path 46" d="M461.446,230.721a1.205,1.205,0,1,1-1.205-1.205A1.205,1.205,0,0,1,461.446,230.721Zm0,0" transform="translate(-438.143 -219.07)" fill="#c0ebd0"/>
      <path id="Path_47-4" data-name="Path 47" d="M389.855,47.521a1.607,1.607,0,1,1-1.607-1.607A1.607,1.607,0,0,1,389.855,47.521Zm0,0" transform="translate(-369.043 -43.824)" fill="#c0ebd0"/>
    </g>
    <g id="Group_15" data-name="Group 15" transform="translate(99.092 148.538)">
      <path id="Path_25-5" data-name="Path 25" d="M238.746,46.547a.4.4,0,0,1-.4-.4V44.539a.4.4,0,1,1,.8,0v1.607A.4.4,0,0,1,238.746,46.547Zm0,0" transform="translate(-227.496 -42.128)" fill="#c0ebd0"/>
      <path id="Path_26-5" data-name="Path 26" d="M90.458,99.688a.4.4,0,0,1-.284-.118l-1.421-1.421a.4.4,0,0,1,.568-.568L90.742,99a.4.4,0,0,1-.284.686Zm0,0" transform="translate(-84.606 -93.032)" fill="#c0ebd0"/>
      <path id="Path_27-5" data-name="Path 27" d="M37.318,247.975H35.71a.4.4,0,0,1,0-.8h1.607a.4.4,0,0,1,0,.8Zm0,0" transform="translate(-33.702 -235.922)" fill="#c0ebd0"/>
      <path id="Path_28-5" data-name="Path 28" d="M88.936,368.1a.4.4,0,0,1-.284-.686l1.421-1.421a.4.4,0,0,1,.568.568l-1.421,1.421A.4.4,0,0,1,88.936,368.1Zm0,0" transform="translate(-84.504 -349.227)" fill="#c0ebd0"/>
      <path id="Path_29-5" data-name="Path 29" d="M238.746,417.309a.4.4,0,0,1-.4-.4V415.3a.4.4,0,0,1,.8,0v1.607A.4.4,0,0,1,238.746,417.309Zm0,0" transform="translate(-227.496 -396.015)" fill="#c0ebd0"/>
      <path id="Path_30-5" data-name="Path 30" d="M358.868,368.1a.4.4,0,0,1-.284-.118l-1.421-1.421a.4.4,0,0,1,.568-.568l1.421,1.421a.4.4,0,0,1-.284.686Zm0,0" transform="translate(-340.8 -349.227)" fill="#c0ebd0"/>
      <path id="Path_31-5" data-name="Path 31" d="M408.481,247.975h-2.009a.4.4,0,1,1,0-.8h2.009a.4.4,0,1,1,0,.8Zm0,0" transform="translate(-387.589 -235.922)" fill="#c0ebd0"/>
      <path id="Path_32-5" data-name="Path 32" d="M357.347,99.48a.4.4,0,0,1-.284-.686l1.421-1.421a.4.4,0,1,1,.568.568l-1.421,1.421A.4.4,0,0,1,357.347,99.48Zm0,0" transform="translate(-340.699 -92.825)" fill="#c0ebd0"/>
      <path id="Path_33-5" data-name="Path 33" d="M94.717,95.911a7.634,7.634,0,1,1-7.634-7.634A7.634,7.634,0,0,1,94.717,95.911Zm0,0" transform="translate(-75.833 -84.26)" fill="#c0ebd0"/>
      <path id="Path_40-5" data-name="Path 40" d="M223.1,1.205A1.205,1.205,0,1,1,221.9,0,1.205,1.205,0,0,1,223.1,1.205Zm0,0" transform="translate(-210.647)" fill="#c0ebd0"/>
      <path id="Path_41-5" data-name="Path 41" d="M40.3,47.521a1.607,1.607,0,1,1-1.607-1.607A1.607,1.607,0,0,1,40.3,47.521Zm0,0" transform="translate(-35.398 -43.824)" fill="#c0ebd0"/>
      <path id="Path_42-5" data-name="Path 42" d="M2.009,234.934a1,1,0,1,1-1-1A1,1,0,0,1,2.009,234.934Zm0,0" transform="translate(0 -223.283)" fill="#c0ebd0"/>
      <path id="Path_43-5" data-name="Path 43" d="M40.3,397.076a1.607,1.607,0,1,1-1.607-1.607A1.607,1.607,0,0,1,40.3,397.076Zm0,0" transform="translate(-35.398 -377.47)" fill="#c0ebd0"/>
      <path id="Path_44-5" data-name="Path 44" d="M223.1,460.24a1.205,1.205,0,1,1-1.205-1.205A1.205,1.205,0,0,1,223.1,460.24Zm0,0" transform="translate(-210.647 -438.143)" fill="#c0ebd0"/>
      <path id="Path_45-5" data-name="Path 45" d="M389.855,397.076a1.607,1.607,0,1,1-1.607-1.607A1.607,1.607,0,0,1,389.855,397.076Zm0,0" transform="translate(-369.043 -377.47)" fill="#c0ebd0"/>
      <path id="Path_46-5" data-name="Path 46" d="M461.446,230.721a1.205,1.205,0,1,1-1.205-1.205A1.205,1.205,0,0,1,461.446,230.721Zm0,0" transform="translate(-438.143 -219.07)" fill="#c0ebd0"/>
      <path id="Path_47-5" data-name="Path 47" d="M389.855,47.521a1.607,1.607,0,1,1-1.607-1.607A1.607,1.607,0,0,1,389.855,47.521Zm0,0" transform="translate(-369.043 -43.824)" fill="#c0ebd0"/>
    </g>
    <g id="Group_14" data-name="Group 14" transform="translate(0 643.697)">
      <path id="Path_25-6" data-name="Path 25" d="M238.746,46.547a.4.4,0,0,1-.4-.4V44.539a.4.4,0,1,1,.8,0v1.607A.4.4,0,0,1,238.746,46.547Zm0,0" transform="translate(-227.496 -42.128)" fill="#c0ebd0"/>
      <path id="Path_26-6" data-name="Path 26" d="M90.458,99.688a.4.4,0,0,1-.284-.118l-1.421-1.421a.4.4,0,0,1,.568-.568L90.742,99a.4.4,0,0,1-.284.686Zm0,0" transform="translate(-84.606 -93.032)" fill="#c0ebd0"/>
      <path id="Path_27-6" data-name="Path 27" d="M37.318,247.975H35.71a.4.4,0,0,1,0-.8h1.607a.4.4,0,0,1,0,.8Zm0,0" transform="translate(-33.702 -235.922)" fill="#c0ebd0"/>
      <path id="Path_28-6" data-name="Path 28" d="M88.936,368.1a.4.4,0,0,1-.284-.686l1.421-1.421a.4.4,0,0,1,.568.568l-1.421,1.421A.4.4,0,0,1,88.936,368.1Zm0,0" transform="translate(-84.504 -349.227)" fill="#c0ebd0"/>
      <path id="Path_29-6" data-name="Path 29" d="M238.746,417.309a.4.4,0,0,1-.4-.4V415.3a.4.4,0,0,1,.8,0v1.607A.4.4,0,0,1,238.746,417.309Zm0,0" transform="translate(-227.496 -396.015)" fill="#c0ebd0"/>
      <path id="Path_30-6" data-name="Path 30" d="M358.868,368.1a.4.4,0,0,1-.284-.118l-1.421-1.421a.4.4,0,0,1,.568-.568l1.421,1.421a.4.4,0,0,1-.284.686Zm0,0" transform="translate(-340.8 -349.227)" fill="#c0ebd0"/>
      <path id="Path_31-6" data-name="Path 31" d="M408.481,247.975h-2.009a.4.4,0,1,1,0-.8h2.009a.4.4,0,1,1,0,.8Zm0,0" transform="translate(-387.589 -235.922)" fill="#c0ebd0"/>
      <path id="Path_32-6" data-name="Path 32" d="M357.347,99.48a.4.4,0,0,1-.284-.686l1.421-1.421a.4.4,0,1,1,.568.568l-1.421,1.421A.4.4,0,0,1,357.347,99.48Zm0,0" transform="translate(-340.699 -92.825)" fill="#c0ebd0"/>
      <path id="Path_33-6" data-name="Path 33" d="M94.717,95.911a7.634,7.634,0,1,1-7.634-7.634A7.634,7.634,0,0,1,94.717,95.911Zm0,0" transform="translate(-75.833 -84.26)" fill="#c0ebd0"/>
      <path id="Path_40-6" data-name="Path 40" d="M223.1,1.205A1.205,1.205,0,1,1,221.9,0,1.205,1.205,0,0,1,223.1,1.205Zm0,0" transform="translate(-210.647)" fill="#c0ebd0"/>
      <path id="Path_41-6" data-name="Path 41" d="M40.3,47.521a1.607,1.607,0,1,1-1.607-1.607A1.607,1.607,0,0,1,40.3,47.521Zm0,0" transform="translate(-35.398 -43.824)" fill="#c0ebd0"/>
      <path id="Path_42-6" data-name="Path 42" d="M2.009,234.934a1,1,0,1,1-1-1A1,1,0,0,1,2.009,234.934Zm0,0" transform="translate(0 -223.283)" fill="#c0ebd0"/>
      <path id="Path_43-6" data-name="Path 43" d="M40.3,397.076a1.607,1.607,0,1,1-1.607-1.607A1.607,1.607,0,0,1,40.3,397.076Zm0,0" transform="translate(-35.398 -377.47)" fill="#c0ebd0"/>
      <path id="Path_44-6" data-name="Path 44" d="M223.1,460.24a1.205,1.205,0,1,1-1.205-1.205A1.205,1.205,0,0,1,223.1,460.24Zm0,0" transform="translate(-210.647 -438.143)" fill="#c0ebd0"/>
      <path id="Path_45-6" data-name="Path 45" d="M389.855,397.076a1.607,1.607,0,1,1-1.607-1.607A1.607,1.607,0,0,1,389.855,397.076Zm0,0" transform="translate(-369.043 -377.47)" fill="#c0ebd0"/>
      <path id="Path_46-6" data-name="Path 46" d="M461.446,230.721a1.205,1.205,0,1,1-1.205-1.205A1.205,1.205,0,0,1,461.446,230.721Zm0,0" transform="translate(-438.143 -219.07)" fill="#c0ebd0"/>
      <path id="Path_47-6" data-name="Path 47" d="M389.855,47.521a1.607,1.607,0,1,1-1.607-1.607A1.607,1.607,0,0,1,389.855,47.521Zm0,0" transform="translate(-369.043 -43.824)" fill="#c0ebd0"/>
    </g>
    <g id="Group_13" data-name="Group 13" transform="translate(61.531 234.283)">
      <path id="Path_25-7" data-name="Path 25" d="M238.746,46.547a.4.4,0,0,1-.4-.4V44.539a.4.4,0,1,1,.8,0v1.607A.4.4,0,0,1,238.746,46.547Zm0,0" transform="translate(-227.496 -42.128)" fill="#c0ebd0"/>
      <path id="Path_26-7" data-name="Path 26" d="M90.458,99.688a.4.4,0,0,1-.284-.118l-1.421-1.421a.4.4,0,0,1,.568-.568L90.742,99a.4.4,0,0,1-.284.686Zm0,0" transform="translate(-84.606 -93.032)" fill="#c0ebd0"/>
      <path id="Path_27-7" data-name="Path 27" d="M37.318,247.975H35.71a.4.4,0,0,1,0-.8h1.607a.4.4,0,0,1,0,.8Zm0,0" transform="translate(-33.702 -235.922)" fill="#c0ebd0"/>
      <path id="Path_28-7" data-name="Path 28" d="M88.936,368.1a.4.4,0,0,1-.284-.686l1.421-1.421a.4.4,0,0,1,.568.568l-1.421,1.421A.4.4,0,0,1,88.936,368.1Zm0,0" transform="translate(-84.504 -349.227)" fill="#c0ebd0"/>
      <path id="Path_29-7" data-name="Path 29" d="M238.746,417.309a.4.4,0,0,1-.4-.4V415.3a.4.4,0,0,1,.8,0v1.607A.4.4,0,0,1,238.746,417.309Zm0,0" transform="translate(-227.496 -396.015)" fill="#c0ebd0"/>
      <path id="Path_30-7" data-name="Path 30" d="M358.868,368.1a.4.4,0,0,1-.284-.118l-1.421-1.421a.4.4,0,0,1,.568-.568l1.421,1.421a.4.4,0,0,1-.284.686Zm0,0" transform="translate(-340.8 -349.227)" fill="#c0ebd0"/>
      <path id="Path_31-7" data-name="Path 31" d="M408.481,247.975h-2.009a.4.4,0,1,1,0-.8h2.009a.4.4,0,1,1,0,.8Zm0,0" transform="translate(-387.589 -235.922)" fill="#c0ebd0"/>
      <path id="Path_32-7" data-name="Path 32" d="M357.347,99.48a.4.4,0,0,1-.284-.686l1.421-1.421a.4.4,0,1,1,.568.568l-1.421,1.421A.4.4,0,0,1,357.347,99.48Zm0,0" transform="translate(-340.699 -92.825)" fill="#c0ebd0"/>
      <path id="Path_33-7" data-name="Path 33" d="M94.717,95.911a7.634,7.634,0,1,1-7.634-7.634A7.634,7.634,0,0,1,94.717,95.911Zm0,0" transform="translate(-75.833 -84.26)" fill="#c0ebd0"/>
      <path id="Path_40-7" data-name="Path 40" d="M223.1,1.205A1.205,1.205,0,1,1,221.9,0,1.205,1.205,0,0,1,223.1,1.205Zm0,0" transform="translate(-210.647)" fill="#c0ebd0"/>
      <path id="Path_41-7" data-name="Path 41" d="M40.3,47.521a1.607,1.607,0,1,1-1.607-1.607A1.607,1.607,0,0,1,40.3,47.521Zm0,0" transform="translate(-35.398 -43.824)" fill="#c0ebd0"/>
      <path id="Path_42-7" data-name="Path 42" d="M2.009,234.934a1,1,0,1,1-1-1A1,1,0,0,1,2.009,234.934Zm0,0" transform="translate(0 -223.283)" fill="#c0ebd0"/>
      <path id="Path_43-7" data-name="Path 43" d="M40.3,397.076a1.607,1.607,0,1,1-1.607-1.607A1.607,1.607,0,0,1,40.3,397.076Zm0,0" transform="translate(-35.398 -377.47)" fill="#c0ebd0"/>
      <path id="Path_44-7" data-name="Path 44" d="M223.1,460.24a1.205,1.205,0,1,1-1.205-1.205A1.205,1.205,0,0,1,223.1,460.24Zm0,0" transform="translate(-210.647 -438.143)" fill="#c0ebd0"/>
      <path id="Path_45-7" data-name="Path 45" d="M389.855,397.076a1.607,1.607,0,1,1-1.607-1.607A1.607,1.607,0,0,1,389.855,397.076Zm0,0" transform="translate(-369.043 -377.47)" fill="#c0ebd0"/>
      <path id="Path_46-7" data-name="Path 46" d="M461.446,230.721a1.205,1.205,0,1,1-1.205-1.205A1.205,1.205,0,0,1,461.446,230.721Zm0,0" transform="translate(-438.143 -219.07)" fill="#c0ebd0"/>
      <path id="Path_47-7" data-name="Path 47" d="M389.855,47.521a1.607,1.607,0,1,1-1.607-1.607A1.607,1.607,0,0,1,389.855,47.521Zm0,0" transform="translate(-369.043 -43.824)" fill="#c0ebd0"/>
    </g>
    <g id="Group_12" data-name="Group 12" transform="translate(35.059)">
      <path id="Path_25-8" data-name="Path 25" d="M238.746,46.547a.4.4,0,0,1-.4-.4V44.539a.4.4,0,1,1,.8,0v1.607A.4.4,0,0,1,238.746,46.547Zm0,0" transform="translate(-227.496 -42.128)" fill="#c0ebd0"/>
      <path id="Path_26-8" data-name="Path 26" d="M90.458,99.688a.4.4,0,0,1-.284-.118l-1.421-1.421a.4.4,0,0,1,.568-.568L90.742,99a.4.4,0,0,1-.284.686Zm0,0" transform="translate(-84.606 -93.032)" fill="#c0ebd0"/>
      <path id="Path_27-8" data-name="Path 27" d="M37.318,247.975H35.71a.4.4,0,0,1,0-.8h1.607a.4.4,0,0,1,0,.8Zm0,0" transform="translate(-33.702 -235.922)" fill="#c0ebd0"/>
      <path id="Path_28-8" data-name="Path 28" d="M88.936,368.1a.4.4,0,0,1-.284-.686l1.421-1.421a.4.4,0,0,1,.568.568l-1.421,1.421A.4.4,0,0,1,88.936,368.1Zm0,0" transform="translate(-84.504 -349.227)" fill="#c0ebd0"/>
      <path id="Path_29-8" data-name="Path 29" d="M238.746,417.309a.4.4,0,0,1-.4-.4V415.3a.4.4,0,0,1,.8,0v1.607A.4.4,0,0,1,238.746,417.309Zm0,0" transform="translate(-227.496 -396.015)" fill="#c0ebd0"/>
      <path id="Path_30-8" data-name="Path 30" d="M358.868,368.1a.4.4,0,0,1-.284-.118l-1.421-1.421a.4.4,0,0,1,.568-.568l1.421,1.421a.4.4,0,0,1-.284.686Zm0,0" transform="translate(-340.8 -349.227)" fill="#c0ebd0"/>
      <path id="Path_31-8" data-name="Path 31" d="M408.481,247.975h-2.009a.4.4,0,1,1,0-.8h2.009a.4.4,0,1,1,0,.8Zm0,0" transform="translate(-387.589 -235.922)" fill="#c0ebd0"/>
      <path id="Path_32-8" data-name="Path 32" d="M357.347,99.48a.4.4,0,0,1-.284-.686l1.421-1.421a.4.4,0,1,1,.568.568l-1.421,1.421A.4.4,0,0,1,357.347,99.48Zm0,0" transform="translate(-340.699 -92.825)" fill="#c0ebd0"/>
      <path id="Path_33-8" data-name="Path 33" d="M94.717,95.911a7.634,7.634,0,1,1-7.634-7.634A7.634,7.634,0,0,1,94.717,95.911Zm0,0" transform="translate(-75.833 -84.26)" fill="#c0ebd0"/>
      <path id="Path_40-8" data-name="Path 40" d="M223.1,1.205A1.205,1.205,0,1,1,221.9,0,1.205,1.205,0,0,1,223.1,1.205Zm0,0" transform="translate(-210.647)" fill="#c0ebd0"/>
      <path id="Path_41-8" data-name="Path 41" d="M40.3,47.521a1.607,1.607,0,1,1-1.607-1.607A1.607,1.607,0,0,1,40.3,47.521Zm0,0" transform="translate(-35.398 -43.824)" fill="#c0ebd0"/>
      <path id="Path_42-8" data-name="Path 42" d="M2.009,234.934a1,1,0,1,1-1-1A1,1,0,0,1,2.009,234.934Zm0,0" transform="translate(0 -223.283)" fill="#c0ebd0"/>
      <path id="Path_43-8" data-name="Path 43" d="M40.3,397.076a1.607,1.607,0,1,1-1.607-1.607A1.607,1.607,0,0,1,40.3,397.076Zm0,0" transform="translate(-35.398 -377.47)" fill="#c0ebd0"/>
      <path id="Path_44-8" data-name="Path 44" d="M223.1,460.24a1.205,1.205,0,1,1-1.205-1.205A1.205,1.205,0,0,1,223.1,460.24Zm0,0" transform="translate(-210.647 -438.143)" fill="#c0ebd0"/>
      <path id="Path_45-8" data-name="Path 45" d="M389.855,397.076a1.607,1.607,0,1,1-1.607-1.607A1.607,1.607,0,0,1,389.855,397.076Zm0,0" transform="translate(-369.043 -377.47)" fill="#c0ebd0"/>
      <path id="Path_46-8" data-name="Path 46" d="M461.446,230.721a1.205,1.205,0,1,1-1.205-1.205A1.205,1.205,0,0,1,461.446,230.721Zm0,0" transform="translate(-438.143 -219.07)" fill="#c0ebd0"/>
      <path id="Path_47-8" data-name="Path 47" d="M389.855,47.521a1.607,1.607,0,1,1-1.607-1.607A1.607,1.607,0,0,1,389.855,47.521Zm0,0" transform="translate(-369.043 -43.824)" fill="#c0ebd0"/>
    </g>
  </g>
</svg>
